/vscmnt/brussel_pixiu_data/_data_brussel/112/vsc11236/PredSimResults/SUBJ06mtu3D/worker1.mot
version=1
nRows=4
nColumns=50
inDegrees=yes
endheader
                time	         pelvis_tilt	         pelvis_list	     pelvis_rotation	           pelvis_tx	           pelvis_ty	           pelvis_tz	       hip_flexion_r	     hip_adduction_r	      hip_rotation_r	        knee_angle_r	       ankle_angle_r	         mtp_angle_r	       hip_flexion_l	     hip_adduction_l	      hip_rotation_l	        knee_angle_l	       ankle_angle_l	         mtp_angle_l	    lumbar_extension	      lumbar_bending	     lumbar_rotation	 ercspn_r/activation	 intobl_r/activation	 extobl_r/activation	    abd_r/activation	    add_r/activation	hamstrings_r/activation	bifemsh_r/activation	glut_max_r/activation	iliopsoas_r/activation	rect_fem_r/activation	  vasti_r/activation	gastroc_r/activation	 soleus_r/activation	tib_ant_r/activation	 ercspn_l/activation	 intobl_l/activation	 extobl_l/activation	    abd_l/activation	    add_l/activation	hamstrings_l/activation	bifemsh_l/activation	glut_max_l/activation	iliopsoas_l/activation	rect_fem_l/activation	  vasti_l/activation	gastroc_l/activation	 soleus_l/activation	tib_ant_l/activation	
          1.23439392	         -7.11373789	         -0.62632577	          4.26465381	          1.38252120	          0.93164135	         -0.01010079	         31.14502637	         -0.58780069	         -3.01876923	         -5.49459291	          0.94654536	          0.22836863	        -10.98530765	          0.39304561	         -0.48466984	         -8.19471680	          5.42190090	         35.50968399	         -4.73563782	         -0.88628585	         -1.63931170	          0.16021911	          0.13633274	          0.01000243	          0.01000026	          0.26453885	          0.16592256	          0.17217959	          0.06180365	          0.11645498	          0.01001288	          0.01000099	          0.01954709	          0.01454054	          0.42879989	          0.13382578	          0.01000102	          0.01000148	          0.06494220	          0.01004563	          0.01212810	          0.14186543	          0.04308131	          0.47721839	          0.02109068	          0.01001231	          0.36457291	          0.30692527	          0.02113760	
          1.24673786	         -7.17942148	         -0.58326706	          4.28071486	          1.39919462	          0.93003895	         -0.00925320	         31.23146719	         -0.45280677	         -2.56564951	         -7.35924904	          0.64050371	          0.19723263	        -11.26125933	          0.33053406	         -0.90938027	         -9.35750916	          4.51518950	         37.34130840	         -4.43957228	         -0.60866180	         -2.01904932	          0.13289206	          0.11307294	          0.01000296	          0.02636952	          0.21940325	          0.15437193	          0.14280581	          0.08933951	          0.09658457	          0.01000321	          0.01000151	          0.01621290	          0.01205990	          0.49114121	          0.12022851	          0.01000107	          0.01000283	          0.05386132	          0.01005168	          0.01617513	          0.11766041	          0.03574358	          0.46803284	          0.01749876	          0.01235246	          0.33129700	          0.28945764	          0.01753098	
          1.25908180	         -7.22625875	         -0.54861304	          4.26379703	          1.41614899	          0.92874722	         -0.00828078	         31.14541789	         -0.32075163	         -2.21327011	         -8.95128203	          0.22692821	          0.18435307	        -11.33998536	          0.24387559	         -1.35682222	        -10.91399370	          3.47055909	         39.20485072	         -4.13700504	         -0.32300673	         -2.38215643	          0.15379574	          0.09377999	          0.01000218	          0.07804249	          0.23978449	          0.13957663	          0.11844240	          0.12820608	          0.08010461	          0.01000183	          0.01000105	          0.01344707	          0.01000246	          0.54903818	          0.12885861	          0.01000071	          0.01000166	          0.04467113	          0.01000968	          0.01506772	          0.09758545	          0.03069459	          0.45713830	          0.01452269	          0.01752857	          0.27477116	          0.26802342	          0.01453975	
          1.27142574	         -7.25321212	         -0.51085240	          4.21632213	          1.43321018	          0.92784802	         -0.00720075	         30.96638646	         -0.18910528	         -1.96624899	        -10.41500475	         -0.20315240	          0.15896957	        -11.17218611	          0.14171570	         -1.83052606	        -12.92718221	          2.26632003	         41.03595740	         -3.84788198	         -0.04104301	         -2.72237875	          0.15899950	          0.07777875	          0.01000230	          0.12648736	          0.28338227	          0.12764652	          0.09823473	          0.15882728	          0.06643658	          0.01000241	          0.01000383	          0.01115432	          0.01000294	          0.58145478	          0.15449671	          0.01000104	          0.01000153	          0.03704903	          0.01109146	          0.02229491	          0.08093603	          0.02545952	          0.43379405	          0.01205437	          0.01453970	          0.22788758	          0.24260524	          0.01205894	
